<svg width="360" height="300" viewBox="0 0 360 300" fill="none" xmlns="http://www.w3.org/2000/svg">
<path d="M63.6564 21.0007C63.6066 21.0007 64.2382 17.9028 64.2963 17.6786C65.011 15.4611 67.7037 11.6075 70.3048 11.6158C70.7382 11.628 71.164 11.7314 71.5546 11.9192C71.9453 12.107 72.2919 12.375 72.5718 12.7058C72.8518 13.0365 73.0588 13.4225 73.1794 13.8386C73.3 14.2547 73.3315 14.6915 73.2717 15.1206C73.0806 16.9477 71.4351 18.5091 69.9475 19.4061C68.2023 20.494 63.6564 21.0007 63.6564 21.0007Z" fill="#C70C0C"/>
<path d="M58.6121 0.171242C61.1053 1.05159 62.2854 5.58622 62.2023 7.91167C62.2023 8.11099 61.7369 11.2337 61.6953 11.2337H61.6454C61.8366 11.948 62.0443 12.7204 62.2521 13.5675C62.6178 15.1289 63.0167 16.8896 63.3242 18.8496C63.6807 20.9492 63.9138 23.0679 64.0223 25.1947C64.1548 27.578 64.0741 29.9683 63.7812 32.3372C63.7774 32.3648 63.7774 32.3927 63.7812 32.4203C64.1054 31.7309 65.0694 29.8207 65.1525 29.6879C66.4323 27.7444 70.0391 24.7048 72.5572 25.4273C72.9706 25.5533 73.3528 25.765 73.6789 26.0486C74.0049 26.3322 74.2675 26.6813 74.4494 27.0732C74.6313 27.465 74.7286 27.8908 74.7347 28.3227C74.7409 28.7546 74.6559 29.183 74.4852 29.5799C73.8204 31.2908 71.8258 32.3621 70.1554 32.8355C68.2689 33.3754 64.0638 32.7442 63.7314 32.686C63.376 35.0904 62.8596 37.4683 62.1856 39.8036C61.7978 41.1656 61.3767 42.5249 60.9224 43.8814C61.2133 43.2917 61.4875 42.7685 61.5291 42.7021C62.8089 40.7504 66.424 37.719 68.9338 38.4415C69.3472 38.5675 69.7294 38.7792 70.0555 39.0628C70.3815 39.3464 70.6441 39.6955 70.826 40.0874C71.008 40.4792 71.1052 40.905 71.1113 41.3369C71.1175 41.7689 71.0325 42.1972 70.8618 42.5941C70.197 44.305 68.2024 45.3763 66.532 45.8497C64.8616 46.3231 61.2382 45.8497 60.2908 45.7252L59.7673 47.2865C58.9362 49.7781 58.0304 52.2696 57.2741 54.7114C56.9999 55.5419 56.7589 56.4388 56.5179 57.3026C56.7838 56.7794 57.0082 56.3392 57.0497 56.2727C58.3212 54.3293 61.9363 51.2896 64.4461 52.0122C64.8588 52.1395 65.2402 52.3519 65.5657 52.6356C65.8912 52.9193 66.1537 53.2679 66.3361 53.6592C66.5185 54.0504 66.6169 54.4755 66.6249 54.9071C66.6329 55.3386 66.5503 55.7671 66.3824 56.1648C65.7176 57.8839 63.7148 58.947 62.0443 59.4287C60.3739 59.9104 57.1079 59.4868 55.9777 59.329C55.7533 60.2177 55.5372 61.1064 55.3627 61.9784C55.2547 62.5847 55.1134 63.1494 55.0386 63.7557L54.7893 65.5413C54.6729 66.6791 54.5399 67.8502 54.4568 68.9631C54.3904 69.7354 54.3405 70.4746 54.2906 71.2221C54.5566 70.3915 55.1217 68.6724 55.1217 68.5395C56.042 66.7123 57.4153 65.1511 59.1107 64.0049C59.2011 63.7932 59.3154 63.5926 59.4515 63.4069C59.6867 63.044 59.996 62.7349 60.359 62.4996C60.722 62.2644 61.1306 62.1084 61.5581 62.0417C61.9856 61.9751 62.4224 61.9994 62.8398 62.113C63.2573 62.2266 63.646 62.4269 63.9807 62.7009C65.9586 64.4035 65.46 69.071 64.5541 71.2138C64.5043 71.3383 63.7646 72.6423 63.2909 73.4645C63.6483 73.0243 63.9807 72.5924 64.3547 72.1522C65.0777 71.2636 65.8256 70.3999 66.6234 69.4697L67.8451 68.1492C68.244 67.7007 68.726 67.3186 69.1665 66.8286C70.2053 65.8237 71.3106 64.852 72.4491 63.8969C71.6762 63.2657 68.9504 60.9735 68.1692 59.4121C67.388 57.8507 66.8312 55.6665 67.6456 54.0137C67.8248 53.6196 68.0848 53.2675 68.4088 52.9802C68.7328 52.6929 69.1136 52.4769 69.5266 52.3461C69.9395 52.2153 70.3753 52.1727 70.8058 52.2211C71.2362 52.2694 71.6517 52.4077 72.0253 52.6268C74.2276 54.0137 74.452 58.7062 73.8785 60.9319C73.8785 61.0731 73.2469 62.6428 72.9062 63.4982C73.596 62.9335 74.2774 62.3687 74.9921 61.8372C77.0532 60.2509 79.189 58.6979 81.3081 57.1448L83.2445 55.7163C82.9702 55.4921 79.6793 52.8344 78.7984 51.082C78.0255 49.5289 77.4604 47.3364 78.2748 45.6919C78.4529 45.2969 78.7124 44.9438 79.0363 44.6558C79.3601 44.3678 79.7412 44.1513 80.1545 44.0204C80.5678 43.8895 81.0041 43.8472 81.4348 43.8962C81.8656 43.9453 82.2812 44.0845 82.6544 44.305C84.865 45.6836 85.0811 50.3761 84.5077 52.6102C84.4661 52.7763 83.6102 55.0353 83.3691 55.6C84.7819 54.5453 86.1864 53.4822 87.5244 52.3693C89.3449 50.8862 91.0661 49.2854 92.6769 47.5772C92.5523 47.4693 89.1034 44.7119 88.2059 42.9263C87.4247 41.3732 86.8679 39.1724 87.6823 37.528C87.8605 37.1341 88.1197 36.7821 88.443 36.4948C88.7662 36.2076 89.1464 35.9916 89.5586 35.8608C89.9709 35.7299 90.4061 35.6873 90.836 35.7356C91.2658 35.7838 91.6807 35.922 92.0536 36.141C94.2642 37.5279 94.4886 42.2204 93.9152 44.4462C93.9152 44.5957 93.2254 46.3148 92.9013 47.1287L93.026 47.2118C94.6003 45.4461 96.0158 43.5452 97.256 41.531C97.9541 40.4265 98.5525 39.3385 99.1176 38.2671C98.4195 37.8186 95.2698 35.734 94.2809 34.2142C93.2919 32.6943 92.544 30.6346 93.1673 28.9072C93.3008 28.4954 93.5197 28.1163 93.8097 27.7947C94.0996 27.4731 94.4541 27.2162 94.8501 27.0407C95.246 26.8652 95.6746 26.775 96.1077 26.7761C96.5409 26.7771 96.969 26.8694 97.3641 27.0468C99.7159 28.1846 100.447 32.8604 100.123 35.1277C100.123 35.2523 99.7907 36.5064 99.5497 37.4117C99.7907 36.9217 100.057 36.4234 100.281 35.95C101.112 34.181 101.819 32.5033 102.4 30.9669C102.733 30.1363 103.007 29.3473 103.231 28.6165C102.774 27.786 100.996 24.5968 100.821 22.8029C100.647 21.0089 100.929 18.833 102.284 17.5872C102.592 17.2839 102.961 17.0488 103.367 16.8973C103.772 16.7458 104.205 16.6813 104.636 16.7079C105.068 16.7346 105.49 16.8518 105.873 17.0519C106.257 17.252 106.594 17.5306 106.863 17.8696C108.425 19.9542 106.938 24.4141 105.591 26.3076C105.475 26.4738 103.356 28.7992 103.331 28.7992V28.7494C103.098 29.4553 102.849 30.2111 102.55 31.025C102.001 32.5365 101.361 34.2308 100.539 36.0081C99.669 37.9528 98.6895 39.8467 97.6051 41.6805C96.3949 43.7375 95.0044 45.683 93.4498 47.4942L93.3916 47.5606C94.0399 47.162 95.8848 46.0989 96.0427 46.0325C98.1868 45.1189 102.857 44.604 104.569 46.564C104.845 46.8975 105.047 47.2854 105.163 47.7022C105.278 48.119 105.305 48.5555 105.241 48.9832C105.176 49.4109 105.023 49.8204 104.79 50.1848C104.557 50.5493 104.249 50.8607 103.888 51.0986C102.384 52.1617 100.131 51.9291 98.4694 51.4308C96.5995 50.8329 93.4831 47.9925 93.2005 47.7599C91.5773 49.5697 89.8337 51.2678 87.9815 52.8427C86.9094 53.7646 85.7958 54.6615 84.6573 55.5502C85.2307 55.218 85.746 54.9273 85.8208 54.8941C87.9566 53.9805 92.6271 53.4656 94.339 55.4256C94.6158 55.7586 94.8191 56.1464 94.9355 56.5634C95.0519 56.9804 95.0788 57.4173 95.0145 57.8454C94.9501 58.2736 94.796 58.6833 94.5622 59.0477C94.3283 59.4122 94.0201 59.7232 93.6576 59.9602C92.1617 61.0233 89.9012 60.7908 88.2474 60.2924C86.5936 59.7941 83.8262 57.3856 83.1115 56.7461C82.6711 57.0783 82.2805 57.4188 81.8068 57.7594C79.7208 59.354 77.6515 60.9403 75.6154 62.5681C74.909 63.1328 74.2359 63.7225 73.5544 64.3121L74.5683 63.7474C76.7041 62.8338 81.3746 62.3106 83.0866 64.2706C83.3623 64.6049 83.5646 64.9934 83.6803 65.4108C83.7961 65.8283 83.8227 66.2654 83.7584 66.6938C83.6941 67.1222 83.5405 67.5323 83.3073 67.8975C83.0742 68.2627 82.7668 68.5748 82.4051 68.8136C80.9092 69.8766 78.6488 69.6441 76.995 69.1375C75.3412 68.6308 72.8397 66.4632 72.0087 65.7074C71.3355 66.3303 70.6541 66.9532 70.0308 67.5844C69.6069 68.0246 69.1997 68.4149 68.7842 68.8883L67.5875 70.2337C66.8645 71.1224 66.1082 72.0277 65.4184 72.908C64.9364 73.5143 64.4876 74.104 64.0389 74.7019C64.7286 74.1206 66.1248 73.0409 66.2495 72.9412C68.2191 71.7121 72.7649 70.4497 74.7511 72.1772C75.073 72.4661 75.3305 72.8196 75.5067 73.2145C75.6829 73.6094 75.774 74.037 75.774 74.4694C75.774 74.9018 75.6829 75.3294 75.5067 75.7243C75.3305 76.1192 75.073 76.4727 74.7511 76.7616C73.4215 78.0406 71.161 78.1735 69.449 77.9077C67.5542 77.6088 64.1303 75.4162 63.7065 75.1006C62.9585 76.0889 62.2438 77.044 61.579 77.9659C59.2769 81.1468 57.4819 83.8875 56.2519 85.8143L56.1273 86.0136L54.5316 85.2412L54.781 84.8592C56.0691 82.9324 57.9473 80.2083 60.3407 77.0523C61.0969 76.0474 61.9197 74.9926 62.7757 73.9212C61.8855 72.9492 61.053 71.9259 60.2825 70.8566C58.4459 71.5792 54.6397 71.6041 54.141 71.6041C54.0662 72.8333 53.9998 74.0375 53.9499 75.167C53.7837 79.0871 53.8003 82.3593 53.8419 84.6515V84.9173L52.0883 84.0868C52.0883 81.8112 52.1798 78.7383 52.4124 75.1006C52.4872 73.8548 52.5953 72.5177 52.7199 71.1473C52.2296 71.0227 48.2655 70.0095 46.7696 68.8136C45.415 67.7256 43.9856 65.9732 44.0354 64.1294C44.0321 63.6969 44.12 63.2685 44.2932 62.8721C44.4665 62.4758 44.7214 62.1203 45.0412 61.8289C45.3611 61.5374 45.7387 61.3166 46.1496 61.1807C46.5605 61.0447 46.9955 60.9968 47.4261 61.0399C50.0107 61.3721 52.1798 65.5413 52.6036 67.8252C52.6036 67.9664 52.7366 69.4863 52.7864 70.3998C52.8446 69.8434 52.8862 69.2953 52.9526 68.7388C53.0607 67.601 53.2103 66.4715 53.3682 65.2506C53.4596 64.661 53.5593 64.0713 53.6507 63.4733C53.7421 62.8754 53.9 62.2608 54.0247 61.6462C54.3405 60.2343 54.7228 58.8141 55.1466 57.3939C54.1494 57.2943 50.6174 56.879 49.1049 56.007C47.5924 55.1349 45.9136 53.6234 45.6892 51.7963C45.6198 51.3689 45.6412 50.9316 45.7521 50.5131C45.8631 50.0945 46.0611 49.7041 46.3331 49.3671C46.6052 49.0301 46.9453 48.7543 47.3313 48.5575C47.7172 48.3607 48.1403 48.2474 48.573 48.225C51.1742 48.1669 53.9499 51.954 54.7145 54.1549C54.7643 54.2878 55.1383 55.9239 55.3294 56.8292C55.5871 55.9987 55.8364 55.1266 56.1605 54.2712C56.9916 51.7796 57.9306 49.3462 58.8448 46.8796C59.1274 46.1238 59.3933 45.368 59.6759 44.6123C59.3185 44.6123 55.1051 44.1721 53.4097 43.2004C51.9055 42.3699 50.2268 40.8168 49.9941 38.9897C49.926 38.5625 49.9483 38.1257 50.0598 37.7077C50.1713 37.2897 50.3694 36.8998 50.6412 36.5631C50.9131 36.2265 51.2526 35.9506 51.6379 35.7534C52.0232 35.5562 52.4456 35.4421 52.8778 35.4184C55.4873 35.3603 58.2631 39.1475 59.0276 41.3483C59.0858 41.5144 59.6177 43.8399 59.7257 44.4711C60.3241 42.81 60.9141 41.149 61.3878 39.488C62.0906 37.2455 62.6459 34.9594 63.0499 32.6445C62.8837 32.6445 58.4874 32.2292 56.7505 31.2326C55.238 30.4021 53.5593 28.849 53.3349 27.0219C53.2654 26.5949 53.2868 26.1581 53.3978 25.74C53.5088 25.3219 53.7069 24.932 53.9791 24.5957C54.2514 24.2593 54.5915 23.9842 54.9775 23.7884C55.3634 23.5925 55.7864 23.4802 56.2187 23.459C58.8199 23.3925 61.5956 27.1797 62.3601 29.3806C62.41 29.5218 62.8255 31.3157 63.0001 32.1794H63.1413C63.4846 29.8401 63.6181 27.4748 63.5402 25.1117C63.5402 23.8078 63.4156 22.5703 63.2909 21.3661C62.4599 21.3661 58.6869 21.3661 57.0248 20.6435C55.3627 19.921 53.5925 18.6254 53.1604 16.8397C53.0451 16.4215 53.0195 15.9836 53.0853 15.5547C53.1511 15.1259 53.3068 14.7157 53.5421 14.3512C53.7775 13.9866 54.0872 13.6758 54.4511 13.4392C54.8149 13.2025 55.2247 13.0453 55.6536 12.9778C58.2381 12.6207 61.4127 16.0923 62.4183 18.1852C62.4682 18.3015 62.9003 19.5223 63.1912 20.4193C63.133 19.8711 63.0749 19.3064 63.0001 18.7582C62.7424 16.8065 62.3768 15.0375 62.0443 13.4678C61.8449 12.5792 61.6538 11.8068 61.4626 11.0344C60.6316 10.6192 57.3738 8.90829 56.2602 7.52963C55.1466 6.15097 54.1494 4.14943 54.5981 2.37212C54.6974 1.95241 54.8838 1.55821 55.1452 1.21503C55.4066 0.871848 55.7372 0.587326 56.1155 0.379872C56.4939 0.172419 56.9116 0.0466552 57.3416 0.0107165C57.7717 -0.0252221 58.2045 0.0294659 58.6121 0.171242Z" fill="#C70C0C"/>
<path d="M105.716 40.277C103.68 40.194 99.6078 38.1094 99.6078 38.1094C99.6078 38.1094 101.794 35.842 101.951 35.7175C103.771 34.2724 108.143 32.5366 110.312 33.9817C110.666 34.2299 110.964 34.5502 111.187 34.9215C111.409 35.2928 111.55 35.7069 111.601 36.1365C111.652 36.5661 111.612 37.0017 111.483 37.4146C111.353 37.8276 111.139 38.2087 110.852 38.5329C109.689 39.9531 107.453 40.3518 105.716 40.277Z" fill="#C70C0C"/>
<g opacity="0.5">
<path opacity="0.5" d="M63.6565 21.0007C63.6067 21.0007 64.2383 17.9028 64.2964 17.6786C65.0111 15.4611 67.7037 11.6075 70.3049 11.6158C70.7382 11.628 71.1641 11.7314 71.5547 11.9192C71.9453 12.107 72.2919 12.375 72.5719 12.7058C72.8519 13.0365 73.0589 13.4225 73.1795 13.8386C73.3001 14.2547 73.3316 14.6915 73.2718 15.1206C73.0807 16.9477 71.4352 18.5091 69.9476 19.4061C68.2024 20.494 63.6565 21.0007 63.6565 21.0007Z" fill="white"/>
<path opacity="0.5" d="M58.6121 0.171242C61.1053 1.05159 62.2854 5.58622 62.2023 7.91167C62.2023 8.11099 61.7369 11.2337 61.6953 11.2337H61.6454C61.8366 11.948 62.0443 12.7204 62.2521 13.5675C62.6178 15.1289 63.0167 16.8896 63.3242 18.8496C63.6807 20.9492 63.9138 23.0679 64.0223 25.1947C64.1548 27.578 64.0741 29.9683 63.7812 32.3372C63.7774 32.3648 63.7774 32.3927 63.7812 32.4203C64.1054 31.7309 65.0694 29.8207 65.1525 29.6879C66.4323 27.7444 70.0391 24.7048 72.5572 25.4273C72.9706 25.5533 73.3528 25.765 73.6789 26.0486C74.0049 26.3322 74.2675 26.6813 74.4494 27.0732C74.6313 27.465 74.7286 27.8908 74.7347 28.3227C74.7409 28.7546 74.6559 29.183 74.4852 29.5799C73.8204 31.2908 71.8258 32.3621 70.1554 32.8355C68.2689 33.3754 64.0638 32.7442 63.7314 32.686C63.376 35.0904 62.8596 37.4683 62.1856 39.8036C61.7978 41.1656 61.3767 42.5249 60.9224 43.8814C61.2133 43.2917 61.4875 42.7685 61.5291 42.7021C62.8089 40.7504 66.424 37.719 68.9338 38.4415C69.3472 38.5675 69.7294 38.7792 70.0555 39.0628C70.3815 39.3464 70.6441 39.6955 70.826 40.0874C71.008 40.4792 71.1052 40.905 71.1113 41.3369C71.1175 41.7689 71.0325 42.1972 70.8618 42.5941C70.197 44.305 68.2024 45.3763 66.532 45.8497C64.8616 46.3231 61.2382 45.8497 60.2908 45.7252L59.7673 47.2865C58.9362 49.7781 58.0304 52.2696 57.2741 54.7114C56.9999 55.5419 56.7589 56.4388 56.5179 57.3026C56.7838 56.7794 57.0082 56.3392 57.0497 56.2727C58.3212 54.3293 61.9363 51.2896 64.4461 52.0122C64.8588 52.1395 65.2402 52.3519 65.5657 52.6356C65.8912 52.9193 66.1537 53.2679 66.3361 53.6592C66.5185 54.0504 66.6169 54.4755 66.6249 54.9071C66.6329 55.3386 66.5503 55.7671 66.3824 56.1648C65.7176 57.8839 63.7148 58.947 62.0443 59.4287C60.3739 59.9104 57.1079 59.4868 55.9777 59.329C55.7533 60.2177 55.5372 61.1064 55.3627 61.9784C55.2547 62.5847 55.1134 63.1494 55.0386 63.7557L54.7893 65.5413C54.6729 66.6791 54.5399 67.8502 54.4568 68.9631C54.3904 69.7354 54.3405 70.4746 54.2906 71.2221C54.5566 70.3915 55.1217 68.6724 55.1217 68.5395C56.042 66.7123 57.4153 65.1511 59.1107 64.0049C59.2011 63.7932 59.3154 63.5926 59.4515 63.4069C59.6867 63.044 59.996 62.7349 60.359 62.4996C60.722 62.2644 61.1306 62.1084 61.5581 62.0417C61.9856 61.9751 62.4224 61.9994 62.8398 62.113C63.2573 62.2266 63.646 62.4269 63.9807 62.7009C65.9586 64.4035 65.46 69.071 64.5541 71.2138C64.5043 71.3383 63.7646 72.6423 63.2909 73.4645C63.6483 73.0243 63.9807 72.5924 64.3547 72.1522C65.0777 71.2636 65.8256 70.3999 66.6234 69.4697L67.8451 68.1492C68.244 67.7007 68.726 67.3186 69.1665 66.8286C70.2053 65.8237 71.3106 64.852 72.4491 63.8969C71.6762 63.2657 68.9504 60.9735 68.1692 59.4121C67.388 57.8507 66.8312 55.6665 67.6456 54.0137C67.8248 53.6196 68.0848 53.2675 68.4088 52.9802C68.7328 52.6929 69.1136 52.4769 69.5266 52.3461C69.9395 52.2153 70.3753 52.1727 70.8058 52.2211C71.2362 52.2694 71.6517 52.4077 72.0253 52.6268C74.2276 54.0137 74.452 58.7062 73.8785 60.9319C73.8785 61.0731 73.2469 62.6428 72.9062 63.4982C73.596 62.9335 74.2774 62.3687 74.9921 61.8372C77.0532 60.2509 79.189 58.6979 81.3081 57.1448L83.2445 55.7163C82.9702 55.4921 79.6793 52.8344 78.7984 51.082C78.0255 49.5289 77.4604 47.3364 78.2748 45.6919C78.4529 45.2969 78.7124 44.9438 79.0363 44.6558C79.3601 44.3678 79.7412 44.1513 80.1545 44.0204C80.5678 43.8895 81.0041 43.8472 81.4348 43.8962C81.8656 43.9453 82.2812 44.0845 82.6544 44.305C84.865 45.6836 85.0811 50.3761 84.5077 52.6102C84.4661 52.7763 83.6102 55.0353 83.3691 55.6C84.7819 54.5453 86.1864 53.4822 87.5244 52.3693C89.3449 50.8862 91.0661 49.2854 92.6769 47.5772C92.5523 47.4693 89.1034 44.7119 88.2059 42.9263C87.4247 41.3732 86.8679 39.1724 87.6823 37.528C87.8605 37.1341 88.1197 36.7821 88.443 36.4948C88.7662 36.2076 89.1464 35.9916 89.5586 35.8608C89.9709 35.7299 90.4061 35.6873 90.836 35.7356C91.2658 35.7838 91.6807 35.922 92.0536 36.141C94.2642 37.5279 94.4886 42.2204 93.9152 44.4462C93.9152 44.5957 93.2254 46.3148 92.9013 47.1287L93.026 47.2118C94.6003 45.4461 96.0158 43.5452 97.256 41.531C97.9541 40.4265 98.5525 39.3385 99.1176 38.2671C98.4195 37.8186 95.2698 35.734 94.2809 34.2142C93.2919 32.6943 92.544 30.6346 93.1673 28.9072C93.3008 28.4954 93.5197 28.1163 93.8097 27.7947C94.0996 27.4731 94.4541 27.2162 94.8501 27.0407C95.246 26.8652 95.6746 26.775 96.1077 26.7761C96.5409 26.7771 96.969 26.8694 97.3641 27.0468C99.7159 28.1846 100.447 32.8604 100.123 35.1277C100.123 35.2523 99.7907 36.5064 99.5497 37.4117C99.7907 36.9217 100.057 36.4234 100.281 35.95C101.112 34.181 101.819 32.5033 102.4 30.9669C102.733 30.1363 103.007 29.3473 103.231 28.6165C102.774 27.786 100.996 24.5968 100.821 22.8029C100.647 21.0089 100.929 18.833 102.284 17.5872C102.592 17.2839 102.961 17.0488 103.367 16.8973C103.772 16.7458 104.205 16.6813 104.636 16.7079C105.068 16.7346 105.49 16.8518 105.873 17.0519C106.257 17.252 106.594 17.5306 106.863 17.8696C108.425 19.9542 106.938 24.4141 105.591 26.3076C105.475 26.4738 103.356 28.7992 103.331 28.7992V28.7494C103.098 29.4553 102.849 30.2111 102.55 31.025C102.001 32.5365 101.361 34.2308 100.539 36.0081C99.669 37.9528 98.6895 39.8467 97.6051 41.6805C96.3949 43.7375 95.0044 45.683 93.4498 47.4942L93.3916 47.5606C94.0399 47.162 95.8848 46.0989 96.0427 46.0325C98.1868 45.1189 102.857 44.604 104.569 46.564C104.845 46.8975 105.047 47.2854 105.163 47.7022C105.278 48.119 105.305 48.5555 105.241 48.9832C105.176 49.4109 105.023 49.8204 104.79 50.1848C104.557 50.5493 104.249 50.8607 103.888 51.0986C102.384 52.1617 100.131 51.9291 98.4694 51.4308C96.5995 50.8329 93.4831 47.9925 93.2005 47.7599C91.5773 49.5697 89.8337 51.2678 87.9815 52.8427C86.9094 53.7646 85.7958 54.6615 84.6573 55.5502C85.2307 55.218 85.746 54.9273 85.8208 54.8941C87.9566 53.9805 92.6271 53.4656 94.339 55.4256C94.6158 55.7586 94.8191 56.1464 94.9355 56.5634C95.0519 56.9804 95.0788 57.4173 95.0145 57.8454C94.9501 58.2736 94.796 58.6833 94.5622 59.0477C94.3283 59.4122 94.0201 59.7232 93.6576 59.9602C92.1617 61.0233 89.9012 60.7908 88.2474 60.2924C86.5936 59.7941 83.8262 57.3856 83.1115 56.7461C82.6711 57.0783 82.2805 57.4188 81.8068 57.7594C79.7208 59.354 77.6515 60.9403 75.6154 62.5681C74.909 63.1328 74.2359 63.7225 73.5544 64.3121L74.5683 63.7474C76.7041 62.8338 81.3746 62.3106 83.0866 64.2706C83.3623 64.6049 83.5646 64.9934 83.6803 65.4108C83.7961 65.8283 83.8227 66.2654 83.7584 66.6938C83.6941 67.1222 83.5405 67.5323 83.3073 67.8975C83.0742 68.2627 82.7668 68.5748 82.4051 68.8136C80.9092 69.8766 78.6488 69.6441 76.995 69.1375C75.3412 68.6308 72.8397 66.4632 72.0087 65.7074C71.3355 66.3303 70.6541 66.9532 70.0308 67.5844C69.6069 68.0246 69.1997 68.4149 68.7842 68.8883L67.5875 70.2337C66.8645 71.1224 66.1082 72.0277 65.4184 72.908C64.9364 73.5143 64.4876 74.104 64.0389 74.7019C64.7286 74.1206 66.1248 73.0409 66.2495 72.9412C68.2191 71.7121 72.7649 70.4497 74.7511 72.1772C75.073 72.4661 75.3305 72.8196 75.5067 73.2145C75.6829 73.6094 75.774 74.037 75.774 74.4694C75.774 74.9018 75.6829 75.3294 75.5067 75.7243C75.3305 76.1192 75.073 76.4727 74.7511 76.7616C73.4215 78.0406 71.161 78.1735 69.449 77.9077C67.5542 77.6088 64.1303 75.4162 63.7065 75.1006C62.9585 76.0889 62.2438 77.044 61.579 77.9659C59.2769 81.1468 57.4819 83.8875 56.2519 85.8143L56.1273 86.0136L54.5316 85.2412L54.781 84.8592C56.0691 82.9324 57.9473 80.2083 60.3407 77.0523C61.0969 76.0474 61.9197 74.9926 62.7757 73.9212C61.8855 72.9492 61.053 71.9259 60.2825 70.8566C58.4459 71.5792 54.6397 71.6041 54.141 71.6041C54.0662 72.8333 53.9998 74.0375 53.9499 75.167C53.7837 79.0871 53.8003 82.3593 53.8419 84.6515V84.9173L52.0883 84.0868C52.0883 81.8112 52.1798 78.7383 52.4124 75.1006C52.4872 73.8548 52.5953 72.5177 52.7199 71.1473C52.2296 71.0227 48.2655 70.0095 46.7696 68.8136C45.415 67.7256 43.9856 65.9732 44.0354 64.1294C44.0321 63.6969 44.12 63.2685 44.2932 62.8721C44.4665 62.4758 44.7214 62.1203 45.0412 61.8289C45.3611 61.5374 45.7387 61.3166 46.1496 61.1807C46.5605 61.0447 46.9955 60.9968 47.4261 61.0399C50.0107 61.3721 52.1798 65.5413 52.6036 67.8252C52.6036 67.9664 52.7366 69.4863 52.7864 70.3998C52.8446 69.8434 52.8862 69.2953 52.9526 68.7388C53.0607 67.601 53.2103 66.4715 53.3682 65.2506C53.4596 64.661 53.5593 64.0713 53.6507 63.4733C53.7421 62.8754 53.9 62.2608 54.0247 61.6462C54.3405 60.2343 54.7228 58.8141 55.1466 57.3939C54.1494 57.2943 50.6174 56.879 49.1049 56.007C47.5924 55.1349 45.9136 53.6234 45.6892 51.7963C45.6198 51.3689 45.6412 50.9316 45.7521 50.5131C45.8631 50.0945 46.0611 49.7041 46.3331 49.3671C46.6052 49.0301 46.9453 48.7543 47.3313 48.5575C47.7172 48.3607 48.1403 48.2474 48.573 48.225C51.1742 48.1669 53.9499 51.954 54.7145 54.1549C54.7643 54.2878 55.1383 55.9239 55.3294 56.8292C55.5871 55.9987 55.8364 55.1266 56.1605 54.2712C56.9916 51.7796 57.9306 49.3462 58.8448 46.8796C59.1274 46.1238 59.3933 45.368 59.6759 44.6123C59.3185 44.6123 55.1051 44.1721 53.4097 43.2004C51.9055 42.3699 50.2268 40.8168 49.9941 38.9897C49.926 38.5625 49.9483 38.1257 50.0598 37.7077C50.1713 37.2897 50.3694 36.8998 50.6412 36.5631C50.9131 36.2265 51.2526 35.9506 51.6379 35.7534C52.0232 35.5562 52.4456 35.4421 52.8778 35.4184C55.4873 35.3603 58.2631 39.1475 59.0276 41.3483C59.0858 41.5144 59.6177 43.8399 59.7257 44.4711C60.3241 42.81 60.9141 41.149 61.3878 39.488C62.0906 37.2455 62.6459 34.9594 63.0499 32.6445C62.8837 32.6445 58.4874 32.2292 56.7505 31.2326C55.238 30.4021 53.5593 28.849 53.3349 27.0219C53.2654 26.5949 53.2868 26.1581 53.3978 25.74C53.5088 25.3219 53.7069 24.932 53.9791 24.5957C54.2514 24.2593 54.5915 23.9842 54.9775 23.7884C55.3634 23.5925 55.7864 23.4802 56.2187 23.459C58.8199 23.3925 61.5956 27.1797 62.3601 29.3806C62.41 29.5218 62.8255 31.3157 63.0001 32.1794H63.1413C63.4846 29.8401 63.6181 27.4748 63.5402 25.1117C63.5402 23.8078 63.4156 22.5703 63.2909 21.3661C62.4599 21.3661 58.6869 21.3661 57.0248 20.6435C55.3627 19.921 53.5925 18.6254 53.1604 16.8397C53.0451 16.4215 53.0195 15.9836 53.0853 15.5547C53.1511 15.1259 53.3068 14.7157 53.5421 14.3512C53.7775 13.9866 54.0872 13.6758 54.4511 13.4392C54.8149 13.2025 55.2247 13.0453 55.6536 12.9778C58.2381 12.6207 61.4127 16.0923 62.4183 18.1852C62.4682 18.3015 62.9003 19.5223 63.1912 20.4193C63.133 19.8711 63.0749 19.3064 63.0001 18.7582C62.7424 16.8065 62.3768 15.0375 62.0443 13.4678C61.8449 12.5792 61.6538 11.8068 61.4626 11.0344C60.6316 10.6192 57.3738 8.90829 56.2602 7.52963C55.1466 6.15097 54.1494 4.14943 54.5981 2.37212C54.6974 1.95241 54.8838 1.55821 55.1452 1.21503C55.4066 0.871848 55.7372 0.587326 56.1155 0.379872C56.4939 0.172419 56.9116 0.0466552 57.3416 0.0107165C57.7717 -0.0252221 58.2045 0.0294659 58.6121 0.171242Z" fill="white"/>
<path opacity="0.5" d="M105.716 40.277C103.68 40.194 99.6079 38.1094 99.6079 38.1094C99.6079 38.1094 101.794 35.842 101.951 35.7175C103.771 34.2724 108.143 32.5366 110.312 33.9817C110.666 34.2299 110.965 34.5502 111.187 34.9215C111.409 35.2928 111.55 35.7069 111.601 36.1365C111.652 36.5661 111.612 37.0017 111.483 37.4146C111.354 37.8276 111.139 38.2087 110.852 38.5329C109.689 39.9531 107.453 40.3518 105.716 40.277Z" fill="white"/>
</g>
<path d="M81.9398 91.2376C81.9398 91.2376 69.582 61.4718 62.6677 62.7674C55.7533 64.063 74.5268 110.223 74.5268 110.223C74.5268 110.223 52.7865 69.2372 37.9605 69.2372C23.1345 69.2372 43.3956 114.534 62.2189 129.632C62.2189 129.632 32.567 97.7073 15.2728 104.609C-2.02144 111.511 49.8196 143.851 49.8196 143.851C49.8196 143.851 19.6773 134.375 23.1594 141.716C26.6416 149.058 36.0075 150.337 36.0075 150.337L43.9358 152.065H87.1505L93.7989 149.482C93.7989 149.482 121.473 135.67 114.06 130.064C106.647 124.458 90.3417 136.534 90.3417 136.534C90.3417 136.534 118.506 105.473 113.071 93.8288C107.636 82.1849 83.419 114.965 83.419 114.965C83.419 114.965 103.19 73.1157 99.209 65.7822C95.2283 58.4487 81.9398 91.2376 81.9398 91.2376Z" fill="#C70C0C"/>
<path opacity="0.4" d="M81.9398 91.2376C81.9398 91.2376 69.582 61.4718 62.6677 62.7674C55.7533 64.063 74.5268 110.223 74.5268 110.223C74.5268 110.223 52.7865 69.2372 37.9605 69.2372C23.1345 69.2372 43.3956 114.534 62.2189 129.632C62.2189 129.632 32.567 97.7073 15.2728 104.609C-2.02144 111.511 49.8196 143.851 49.8196 143.851C49.8196 143.851 19.6773 134.375 23.1594 141.716C26.6416 149.058 36.0075 150.337 36.0075 150.337L48.9221 152.065H83.8263L93.7989 149.482C93.7989 149.482 121.473 135.67 114.06 130.064C106.647 124.458 90.3417 136.534 90.3417 136.534C90.3417 136.534 118.506 105.473 113.071 93.8288C107.636 82.1849 83.419 114.965 83.419 114.965C83.419 114.965 103.19 73.1157 99.209 65.7822C95.2283 58.4487 81.9398 91.2376 81.9398 91.2376Z" fill="white"/>
<path d="M85.8956 92.8073C75.0255 124.907 75.0255 147.621 75.0255 147.621C75.0255 147.621 87.8735 148.12 101.212 138.237" stroke="#7367F0" stroke-linecap="round" stroke-linejoin="round"/>
<path d="M80.5019 110.09C78.2589 100.495 75.2833 91.0851 71.6013 81.944" stroke="#7367F0" stroke-linecap="round" stroke-linejoin="round"/>
<path d="M48.3404 91.3206L76.0061 132.315C76.0061 132.315 94.7879 116.535 101.212 107.624" stroke="#7367F0" stroke-linecap="round" stroke-linejoin="round"/>
<path d="M75.5158 142.19C75.5158 142.19 46.3625 128.362 34.5034 120.463" stroke="#7367F0" stroke-linecap="round" stroke-linejoin="round"/>
<path d="M163.283 24.7795H157.275V275.006H163.283V24.7795Z" fill="#C2C2C2" stroke="#ABABAB" stroke-linecap="round" stroke-linejoin="round"/>
<path d="M55.197 24.7795H49.1884V275.006H55.197V24.7795Z" fill="#C2C2C2" stroke="#ABABAB" stroke-linecap="round" stroke-linejoin="round"/>
<path d="M109.24 24.7795H103.232V275.006H109.24V24.7795Z" fill="#C2C2C2" stroke="#ABABAB" stroke-linecap="round" stroke-linejoin="round"/>
<path d="M217.318 24.7795H211.31V275.006H217.318V24.7795Z" fill="#C2C2C2" stroke="#ABABAB" stroke-linecap="round" stroke-linejoin="round"/>
<path d="M215.515 32.5781H47.2518V43.9811H215.515V32.5781Z" fill="#C2C2C2" stroke="#ABABAB" stroke-linecap="round" stroke-linejoin="round"/>
<path d="M215.515 32.5781H107.229V43.9811H215.515V32.5781Z" fill="#A6A6A6" stroke="#ABABAB" stroke-linecap="round" stroke-linejoin="round"/>
<path d="M215.515 147.397H47.2518V158.8H215.515V147.397Z" fill="#C2C2C2" stroke="#ABABAB" stroke-linecap="round" stroke-linejoin="round"/>
<path d="M215.515 147.397H107.229V158.8H215.515V147.397Z" fill="#A6A6A6" stroke="#ABABAB" stroke-linecap="round" stroke-linejoin="round"/>
<path d="M215.515 262.208H47.2518V273.611H215.515V262.208Z" fill="#C2C2C2" stroke="#ABABAB" stroke-linecap="round" stroke-linejoin="round"/>
<path d="M215.515 262.208H107.229V273.611H215.515V262.208Z" fill="#A6A6A6" stroke="#ABABAB" stroke-linecap="round" stroke-linejoin="round"/>
<path d="M107.254 200.991H19.1954V274.915H107.254V200.991Z" fill="#7367F0"/>
<path opacity="0.6" d="M107.254 200.991H19.1954V274.915H107.254V200.991Z" fill="white" stroke="#696969" stroke-linecap="round" stroke-linejoin="round"/>
<path d="M107.254 200.991H19.1954V274.915H107.254V200.991Z" stroke="#696969" stroke-linecap="round" stroke-linejoin="round"/>
<path d="M107.253 200.991H77.9921V274.915H107.253V200.991Z" fill="#7367F0"/>
<path opacity="0.39" d="M107.253 200.991H77.9921V274.915H107.253V200.991Z" fill="white" stroke="#696969" stroke-linecap="round" stroke-linejoin="round"/>
<path d="M107.253 200.991H77.9921V274.915H107.253V200.991Z" stroke="#696969" stroke-linecap="round" stroke-linejoin="round"/>
<path d="M92.9262 201.19V275.006" stroke="#696969" stroke-linecap="round" stroke-linejoin="round"/>
<path d="M111.7 127.182H23.6415V201.107H111.7V127.182Z" fill="#7367F0"/>
<path opacity="0.6" d="M111.7 127.182H23.6415V201.107H111.7V127.182Z" fill="white" stroke="#696969" stroke-linecap="round" stroke-linejoin="round"/>
<path d="M111.7 127.182H23.6415V201.107H111.7V127.182Z" stroke="#696969" stroke-linecap="round" stroke-linejoin="round"/>
<path d="M111.7 127.182H82.4383V201.107H111.7V127.182Z" fill="#7367F0"/>
<path opacity="0.39" d="M111.7 127.182H82.4383V201.107H111.7V127.182Z" fill="white" stroke="#696969" stroke-linecap="round" stroke-linejoin="round"/>
<path d="M111.7 127.182H82.4383V201.107H111.7V127.182Z" stroke="#696969" stroke-linecap="round" stroke-linejoin="round"/>
<path d="M97.3723 127.382V201.198" stroke="#696969" stroke-linecap="round" stroke-linejoin="round"/>
<path d="M340.854 200.991H252.796V274.915H340.854V200.991Z" fill="#7367F0"/>
<path opacity="0.6" d="M340.854 200.991H252.796V274.915H340.854V200.991Z" fill="white" stroke="#919191" stroke-linecap="round" stroke-linejoin="round"/>
<path d="M340.854 200.991H252.796V274.915H340.854V200.991Z" stroke="#919191" stroke-linecap="round" stroke-linejoin="round"/>
<path d="M340.854 200.991H311.593V274.915H340.854V200.991Z" fill="#7367F0"/>
<path opacity="0.39" d="M340.854 200.991H311.593V274.915H340.854V200.991Z" fill="white" stroke="#919191" stroke-linecap="round" stroke-linejoin="round"/>
<path d="M340.854 200.991H311.593V274.915H340.854V200.991Z" stroke="#919191" stroke-linecap="round" stroke-linejoin="round"/>
<path d="M326.527 201.19V275.006" stroke="#919191" stroke-linecap="round" stroke-linejoin="round"/>
<path d="M340.854 126.991H252.796V200.916H340.854V126.991Z" fill="#7367F0"/>
<path opacity="0.6" d="M340.854 126.991H252.796V200.916H340.854V126.991Z" fill="white" stroke="#919191" stroke-linecap="round" stroke-linejoin="round"/>
<path d="M340.854 126.991H252.796V200.916H340.854V126.991Z" stroke="#919191" stroke-linecap="round" stroke-linejoin="round"/>
<path d="M340.854 126.991H311.593V200.916H340.854V126.991Z" fill="#7367F0"/>
<path opacity="0.39" d="M340.854 126.991H311.593V200.916H340.854V126.991Z" fill="white" stroke="#919191" stroke-linecap="round" stroke-linejoin="round"/>
<path d="M340.854 126.991H311.593V200.916H340.854V126.991Z" stroke="#919191" stroke-linecap="round" stroke-linejoin="round"/>
<path d="M326.527 127.191V201.007" stroke="#919191" stroke-linecap="round" stroke-linejoin="round"/>
<path d="M333.117 65.7822H260.275V126.933H333.117V65.7822Z" fill="#7367F0"/>
<path opacity="0.6" d="M333.117 65.7822H260.275V126.933H333.117V65.7822Z" fill="white" stroke="#919191" stroke-linecap="round" stroke-linejoin="round"/>
<path d="M333.117 65.7822H260.275V126.933H333.117V65.7822Z" stroke="#919191" stroke-linecap="round" stroke-linejoin="round"/>
<path d="M333.117 65.7822H308.917V126.933H333.117V65.7822Z" fill="#7367F0"/>
<path opacity="0.39" d="M333.117 65.7822H308.917V126.933H333.117V65.7822Z" fill="white" stroke="#919191" stroke-linecap="round" stroke-linejoin="round"/>
<path d="M333.117 65.7822H308.917V126.933H333.117V65.7822Z" stroke="#919191" stroke-linecap="round" stroke-linejoin="round"/>
<path d="M321.266 65.9487V127.008" stroke="#919191" stroke-linecap="round" stroke-linejoin="round"/>
<path d="M323.801 247.126H312.39V254.26H323.801V247.126Z" fill="white" stroke="#7367F0" stroke-linecap="round" stroke-linejoin="round"/>
<path d="M216.429 275.006C220.239 275.006 223.327 271.92 223.327 268.113C223.327 264.306 220.239 261.22 216.429 261.22C212.62 261.22 209.531 264.306 209.531 268.113C209.531 271.92 212.62 275.006 216.429 275.006Z" fill="#7367F0" stroke="#7367F0" stroke-linecap="round" stroke-linejoin="round"/>
<path d="M329.934 154.016H325.862V268.271H329.934V154.016Z" fill="#7367F0" stroke="#7367F0" stroke-linecap="round" stroke-linejoin="round"/>
<path d="M327.765 193.981L318.133 186.324C314.036 183.061 310.963 178.691 309.279 173.734C307.595 168.777 307.371 163.441 308.634 158.36C309.005 156.877 309.861 155.56 311.065 154.617C312.269 153.674 313.753 153.159 315.283 153.153H340.214C341.745 153.156 343.23 153.67 344.435 154.613C345.639 155.557 346.494 156.876 346.862 158.36C348.127 163.44 347.905 168.776 346.222 173.733C344.54 178.691 341.468 183.061 337.372 186.324L327.765 193.981ZM315.299 157.048C314.633 157.045 313.986 157.267 313.462 157.677C312.937 158.086 312.566 158.661 312.407 159.307C311.321 163.661 311.511 168.236 312.953 172.485C314.396 176.735 317.03 180.48 320.543 183.276L327.748 189.006L334.962 183.276C338.476 180.481 341.113 176.736 342.558 172.487C344.003 168.238 344.196 163.663 343.114 159.307C342.955 158.661 342.583 158.088 342.059 157.679C341.534 157.269 340.888 157.047 340.222 157.048H315.299Z" fill="#7367F0"/>
<path d="M303.856 250.697H177.76V265.364H303.856V250.697Z" fill="white"/>
<path opacity="0.28" d="M303.856 250.697H177.76V265.364H303.856V250.697Z" fill="black" stroke="#7367F0" stroke-linecap="round" stroke-linejoin="round"/>
<path d="M303.856 250.697H177.76V265.364H303.856V250.697Z" stroke="#7367F0" stroke-linecap="round" stroke-linejoin="round"/>
<path d="M191.888 250.697H177.76V265.364H191.888V250.697Z" stroke="#7367F0" stroke-linecap="round" stroke-linejoin="round"/>
<path d="M303.847 250.697H289.72V265.364H303.847V250.697Z" stroke="#7367F0" stroke-linecap="round" stroke-linejoin="round"/>
<path d="M247.868 250.697H233.74V265.364H247.868V250.697Z" stroke="#7367F0" stroke-linecap="round" stroke-linejoin="round"/>
<path d="M303.856 265.364H312.548L323.418 224.079H314.726L303.856 265.364Z" fill="white" stroke="#7367F0" stroke-linecap="round" stroke-linejoin="round"/>
<path d="M333.607 241.462H322.197V259.932H333.607V241.462Z" fill="white" stroke="#7367F0" stroke-linecap="round" stroke-linejoin="round"/>
<path d="M325.106 275.006C324.459 274.996 323.841 274.734 323.384 274.277C322.926 273.82 322.665 273.203 322.654 272.556V263.362C322.665 262.716 322.926 262.099 323.384 261.642C323.841 261.185 324.459 260.923 325.106 260.912C325.752 260.923 326.37 261.185 326.827 261.642C327.285 262.099 327.547 262.716 327.557 263.362V272.581C327.54 273.223 327.276 273.834 326.819 274.286C326.362 274.738 325.748 274.996 325.106 275.006Z" fill="#7367F0"/>
<path d="M330.931 275.006C330.285 274.996 329.667 274.734 329.21 274.277C328.752 273.82 328.491 273.203 328.48 272.556V263.362C328.491 262.716 328.752 262.099 329.21 261.642C329.667 261.185 330.285 260.923 330.931 260.912C331.586 260.912 332.214 261.169 332.68 261.627C333.146 262.086 333.414 262.709 333.425 263.362V272.581C333.407 273.23 333.137 273.847 332.671 274.3C332.206 274.753 331.581 275.007 330.931 275.006Z" fill="#7367F0"/>
<path d="M8.05112 275.006H351.949" stroke="#7367F0" stroke-linecap="round" stroke-linejoin="round"/>
<path d="M126.7 299C159.857 299 186.735 295.735 186.735 291.708C186.735 287.681 159.857 284.416 126.7 284.416C93.5437 284.416 66.665 287.681 66.665 291.708C66.665 295.735 93.5437 299 126.7 299Z" fill="#C70C0C"/>
<path opacity="0.5" d="M126.7 299C159.857 299 186.735 295.735 186.735 291.708C186.735 287.681 159.857 284.416 126.7 284.416C93.5437 284.416 66.665 287.681 66.665 291.708C66.665 295.735 93.5437 299 126.7 299Z" fill="white"/>
<path d="M250.934 291.683C250.934 293.693 237.529 295.321 221.016 295.321C204.503 295.321 191.099 293.66 191.099 291.683C191.099 289.706 204.495 288.054 221.016 288.054C237.538 288.054 250.934 289.706 250.934 291.683Z" fill="#C70C0C"/>
<path opacity="0.5" d="M250.934 291.683C250.934 293.693 237.529 295.321 221.016 295.321C204.503 295.321 191.099 293.66 191.099 291.683C191.099 289.706 204.495 288.054 221.016 288.054C237.538 288.054 250.934 289.706 250.934 291.683Z" fill="white"/>
<path d="M138.676 51.489C138.676 51.489 134.03 47.843 128.703 49.6619C123.376 51.4807 119.337 60.3506 117.899 67.5595C116.462 74.7684 110.935 80.2332 112.265 88.6879C113.595 97.1426 123.21 98.4631 134.82 99.7089C146.429 100.955 152.729 99.5428 158.197 91.9186C163.665 84.2945 161.347 75.0176 158.114 66.8121C154.881 58.6065 149.496 50.9907 145.017 49.5788C140.537 48.1669 138.676 51.489 138.676 51.489Z" fill="#7367F0" stroke="#7367F0" stroke-linecap="round" stroke-linejoin="round"/>
<path d="M119.478 94.8503C120.262 95.2026 121.077 95.4807 121.913 95.6809" stroke="white" stroke-linecap="round" stroke-linejoin="round"/>
<path d="M137.512 57.394C135.619 61.6216 133.219 65.604 130.365 69.2538C125.612 75.3581 115.099 81.1219 114.426 87.5252C114.318 88.3825 114.393 89.253 114.646 90.0791C114.9 90.9052 115.326 91.6681 115.897 92.3173" stroke="white" stroke-linecap="round" stroke-linejoin="round"/>
<path d="M156.801 88.0153C156.458 88.8191 156.017 89.5778 155.488 90.2743" stroke="white" stroke-linecap="round" stroke-linejoin="round"/>
<path d="M152.804 71.9695C152.804 71.9695 158.147 78.132 157.632 84.7097" stroke="white" stroke-linecap="round" stroke-linejoin="round"/>
<path d="M136.498 53.9971C134.415 53.7853 132.312 54.0751 130.365 54.8424C128.417 55.6097 126.682 56.832 125.304 58.4072C125.113 58.6231 124.938 58.8391 124.772 59.055" stroke="white" stroke-linecap="round" stroke-linejoin="round"/>
<path d="M105.841 210.542L104.802 226.521C104.802 226.521 100.381 247.956 98.9846 256.793C97.5885 265.63 95.0288 279.068 94.5634 279.068C94.098 279.068 86.469 283.677 84.0257 287.439C81.5824 291.202 84.6822 292.796 88.0729 291.592C91.4636 290.388 96.0676 286.982 97.5718 282.938C99.076 278.893 99.824 277.39 99.9237 276.734C100.023 276.078 116.104 232.932 117.7 228.323C119.296 223.714 122.686 210.176 122.686 210.176L130.59 183.384C130.59 183.384 139.05 210.932 139.149 212.153C139.249 213.374 147.892 283.785 148.291 286.418C148.69 289.05 148.574 290.927 150.169 291.492C151.765 292.057 155.529 292.057 157.507 292.057C159.485 292.057 166.35 293.095 169.732 292.248C173.114 291.401 173.497 290.836 171.145 289.142C168.793 287.448 155.729 286.368 154.524 281.435C154.424 281.061 154.333 208.582 154.333 208.582C154.333 208.582 153.202 184.613 151.324 177.852H107.86L105.841 210.542Z" fill="white" stroke="#7367F0" stroke-linecap="round" stroke-linejoin="round"/>
<path d="M88.0646 291.575C91.447 290.346 96.0593 286.966 97.5635 282.921L97.8793 282.091C95.9596 284.134 92.893 286.974 92.893 286.974C92.705 286.011 92.2858 285.107 91.6713 284.341C91.4032 284.046 91.0598 283.829 90.6777 283.713C90.2957 283.598 89.8894 283.588 89.5023 283.685L92.8265 280.031C90.3333 281.576 85.8457 284.732 84.0838 287.448C81.5657 291.193 84.6573 292.796 88.0646 291.575Z" fill="#7367F0" stroke="#7367F0" stroke-linecap="round" stroke-linejoin="round"/>
<path d="M171.087 289.125C169.475 287.971 162.851 287.099 158.43 285.081C158.247 285.236 158.105 285.432 158.014 285.654C157.734 286.45 157.514 287.266 157.358 288.095L148.216 286.144V286.401C148.59 289.034 148.499 290.911 150.094 291.476C151.69 292.04 155.455 292.04 157.433 292.04C159.411 292.04 166.275 293.078 169.657 292.231C173.04 291.384 173.472 290.853 171.087 289.125Z" fill="#7367F0" stroke="#7367F0" stroke-linecap="round" stroke-linejoin="round"/>
<path d="M118.506 138.868C118.506 138.868 114.193 140.853 108.974 150.221C103.265 160.445 104.245 166.125 104.162 178.459C104.079 190.792 103.83 211.264 103.83 211.264C103.83 211.264 119.62 215.491 130.947 214.827C142.274 214.163 156.643 211.596 156.643 211.596C156.643 211.596 153.576 169.838 150.676 157.829C147.776 145.819 146.031 140.388 146.031 140.388C140.425 141.165 134.745 141.249 129.119 140.637C119.503 139.698 118.506 138.868 118.506 138.868Z" fill="#7367F0" stroke="#7367F0" stroke-linecap="round" stroke-linejoin="round"/>
<path d="M136.673 175.801C137.105 177.221 137.504 178.658 137.853 180.095" stroke="white" stroke-linecap="round" stroke-linejoin="round"/>
<path d="M126.659 152.297C130.006 158.471 132.879 164.89 135.252 171.499" stroke="white" stroke-linecap="round" stroke-linejoin="round"/>
<path d="M224.374 130.928C223.875 130.596 215.706 129.317 215.706 129.317L214.11 128.661C214.11 128.661 224 129.45 224.083 129.034C224.166 128.619 224.498 128.121 223.834 128.038C223.169 127.955 210.445 125.372 210.445 125.372C210.445 125.372 213.678 122.316 214.094 121.651C214.509 120.987 215.083 119.658 214.418 119.658C213.753 119.658 213.587 120.073 212.681 120.655C211.775 121.236 208.202 122.648 207.204 123.47C206.207 124.292 203.232 126.452 203.232 126.452L168.677 121.701C168.677 121.701 156.543 106.752 153.909 103.562C152.078 101.434 149.993 99.5376 147.701 97.9149C145.158 96.7937 145.208 98.6707 145.208 98.6707L150.518 122.257C150.518 122.257 164.255 130.438 165.103 130.438C165.951 130.438 203.066 131.667 203.066 131.667C203.066 131.667 205.559 132.83 207.121 133.818C208.684 134.807 218.648 137.971 218.648 137.971C218.648 137.971 219.313 137.639 218.565 137.057C217.817 136.476 213.013 134.159 213.013 134.159L222.986 136.318C222.986 136.318 223.568 135.903 223.318 135.488C223.069 135.072 214.177 131.675 214.177 131.675L224.149 132.174C224.149 132.174 224.864 131.26 224.374 130.928Z" fill="white" stroke="#7367F0" stroke-linecap="round" stroke-linejoin="round"/>
<path d="M166.591 119.135C163.009 114.725 155.854 105.921 153.909 103.562C152.078 101.434 149.993 99.5376 147.701 97.9149C145.158 96.7937 145.208 98.6707 145.208 98.6707L150.518 122.257C150.518 122.257 156.718 125.945 161.039 128.37L166.591 119.135Z" fill="white" stroke="#7367F0" stroke-linecap="round" stroke-linejoin="round"/>
<path d="M129.866 95.8968C129.866 95.8968 122.653 96.229 118.232 101.121C113.81 106.013 114.334 116.776 116.162 123.237C117.991 129.699 120.318 133.262 119.811 135.504C119.304 137.747 117.492 138.486 118.481 140.554C119.47 142.622 125.196 144.864 135.31 144.532C145.424 144.2 147.335 142.04 147.418 140.147C147.501 138.253 146.753 136.667 147.003 135.504C147.252 134.342 154.549 127.88 154.549 120.754C154.549 113.628 151.399 111.145 150.651 106.004C149.903 100.863 150.152 100.124 147.086 97.8818C144.019 95.6394 133.93 94.4849 129.866 95.8968Z" fill="white" stroke="#7367F0" stroke-linecap="round" stroke-linejoin="round"/>
<path d="M126.592 120.596C124.181 122.613 121.506 124.289 118.639 125.579" stroke="#7367F0" stroke-linecap="round" stroke-linejoin="round"/>
<path d="M127.39 121.427C127.39 121.427 125.603 127.191 121.224 130.372" stroke="#7367F0" stroke-linecap="round" stroke-linejoin="round"/>
<path d="M145.291 101.112L146.122 109.069L142.632 105.008L145.291 101.112Z" fill="white" stroke="#7367F0" stroke-linecap="round" stroke-linejoin="round"/>
<path d="M140.645 109.733L145.291 101.113L141.061 96.5613L140.645 109.733Z" fill="white" stroke="#7367F0" stroke-linecap="round" stroke-linejoin="round"/>
<path d="M131.695 81.8112C132.419 84.6837 132.779 87.6358 132.767 90.5981C132.743 92.5162 132.548 94.4284 132.185 96.3121L140.645 109.733L143.047 97.2755L144.626 88.6547C144.626 88.6547 135.011 88.1065 131.695 81.8112Z" fill="white" stroke="#7367F0" stroke-linecap="round" stroke-linejoin="round"/>
<path d="M140.147 102.524L140.646 109.733L138.161 105.838L140.147 102.524Z" fill="white" stroke="#7367F0" stroke-linecap="round" stroke-linejoin="round"/>
<path d="M129.368 95.9799L137.08 109.816L140.147 102.524L131.944 91.2542L129.368 95.9799Z" fill="white" stroke="#7367F0" stroke-linecap="round" stroke-linejoin="round"/>
<path d="M264.48 102.433H194.497V159.822H264.48V102.433Z" fill="#C70C0C"/>
<path opacity="0.2" d="M264.48 102.433H194.497V159.822H264.48V102.433Z" fill="black"/>
<path d="M264.48 102.433H194.497V159.822H264.48V102.433Z" stroke="#7367F0" stroke-linecap="round" stroke-linejoin="round"/>
<path d="M249.663 102.433H179.68V159.822H249.663V102.433Z" fill="#C70C0C" stroke="#7367F0" stroke-linecap="round" stroke-linejoin="round"/>
<path d="M276.007 179.14C273.763 175.585 264.48 159.822 264.48 159.822H249.671L257.292 179.14H276.007Z" fill="#C70C0C"/>
<path opacity="0.2" d="M276.007 179.14C273.763 175.585 264.48 159.822 264.48 159.822H249.671L257.292 179.14H276.007Z" fill="black"/>
<path d="M276.007 179.14C273.763 175.585 264.48 159.822 264.48 159.822H249.671L257.292 179.14H276.007Z" stroke="#7367F0" stroke-linecap="round" stroke-linejoin="round"/>
<path d="M168.112 179.14C170.356 175.585 179.63 159.822 179.63 159.822H194.448L186.827 179.14H168.112Z" fill="#C70C0C" stroke="#7367F0" stroke-linecap="round" stroke-linejoin="round"/>
<path d="M179.63 159.822L173.189 179.14H246.281L249.671 159.822H179.63Z" fill="#C70C0C" stroke="#7367F0" stroke-linecap="round" stroke-linejoin="round"/>
<path d="M273.489 123.196V142.414" stroke="#7367F0" stroke-linecap="round" stroke-linejoin="round"/>
<path d="M277.129 131.509V147.09" stroke="#7367F0" stroke-linecap="round" stroke-linejoin="round"/>
<path d="M172.159 142.414V154.357" stroke="#7367F0" stroke-linecap="round" stroke-linejoin="round"/>
<path d="M169.042 149.166V158.51" stroke="#7367F0" stroke-linecap="round" stroke-linejoin="round"/>
<path d="M117.841 116.527C120.321 119.334 123.2 121.763 126.384 123.736C131.371 126.717 149.654 137.074 151.092 137.655C152.529 138.237 196.193 131.111 196.193 131.111C196.193 131.111 198.686 132.274 200.257 133.262C201.827 134.25 211.783 137.414 211.783 137.414C211.783 137.414 212.448 137.082 211.7 136.509C210.952 135.936 206.149 133.602 206.149 133.602L216.121 135.762C216.121 135.762 216.703 135.346 216.454 134.931C216.204 134.516 207.312 131.119 207.312 131.119L217.285 131.617C217.285 131.617 218.033 130.704 217.534 130.372C217.036 130.039 206.822 127.714 206.822 127.714C206.822 127.714 217.684 126.8 217.767 126.385C217.85 125.97 218.182 125.48 217.518 125.397C216.853 125.314 203.257 123.985 203.257 123.985C203.257 123.985 206.822 121.751 207.237 121.086C207.653 120.422 208.235 119.093 207.57 119.093C206.905 119.093 206.739 119.508 205.833 120.09C204.927 120.671 201.354 122.083 200.356 122.905C199.359 123.728 196.376 125.895 196.376 125.895L156.419 125.978L131.612 106.419" fill="white"/>
<path d="M117.841 116.527C120.321 119.334 123.2 121.763 126.384 123.736C131.371 126.717 149.654 137.074 151.092 137.655C152.529 138.237 196.193 131.111 196.193 131.111C196.193 131.111 198.686 132.274 200.257 133.262C201.827 134.25 211.783 137.414 211.783 137.414C211.783 137.414 212.448 137.082 211.7 136.509C210.952 135.936 206.149 133.602 206.149 133.602L216.121 135.762C216.121 135.762 216.703 135.346 216.454 134.931C216.204 134.516 207.312 131.119 207.312 131.119L217.285 131.617C217.285 131.617 218.033 130.704 217.534 130.372C217.036 130.039 206.822 127.714 206.822 127.714C206.822 127.714 217.684 126.8 217.767 126.385C217.85 125.97 218.182 125.48 217.518 125.397C216.853 125.314 203.257 123.985 203.257 123.985C203.257 123.985 206.822 121.751 207.237 121.086C207.653 120.422 208.235 119.093 207.57 119.093C206.905 119.093 206.739 119.508 205.833 120.09C204.927 120.671 201.354 122.083 200.356 122.905C199.359 123.728 196.376 125.895 196.376 125.895L156.419 125.978L131.612 106.419" stroke="#7367F0" stroke-linecap="round" stroke-linejoin="round"/>
<path d="M217.501 125.397C216.845 125.314 203.24 123.985 203.24 123.985C203.24 123.985 206.805 121.751 207.221 121.086C207.637 120.422 208.218 119.093 207.553 119.093C206.889 119.093 206.722 119.508 205.817 120.09C204.911 120.671 201.337 122.083 200.34 122.905C199.343 123.727 196.359 125.895 196.359 125.895L156.402 125.978L151.973 122.465C150.311 125.38 147.202 130.845 145.183 134.449C148.291 136.177 150.643 137.464 151.117 137.655C152.529 138.237 196.218 131.111 196.218 131.111C196.218 131.111 198.711 132.273 200.282 133.262C201.852 134.25 211.808 137.414 211.808 137.414C211.808 137.414 212.473 137.082 211.725 136.509C210.977 135.936 206.174 133.602 206.174 133.602L216.147 135.762C216.147 135.762 216.728 135.346 216.479 134.931C216.23 134.516 207.337 131.119 207.337 131.119L217.31 131.617C217.31 131.617 218.058 130.704 217.559 130.372C217.061 130.039 206.822 127.714 206.822 127.714C206.822 127.714 217.684 126.8 217.767 126.385C217.85 125.97 218.166 125.48 217.501 125.397Z" fill="white" stroke="#7367F0" stroke-linecap="round" stroke-linejoin="round"/>
<path d="M150.593 74.8515C150.734 74.6797 150.921 74.5511 151.133 74.4804C151.344 74.4097 151.571 74.3998 151.787 74.4517C152.004 74.5037 152.202 74.6154 152.358 74.7742C152.514 74.933 152.622 75.1325 152.67 75.3499C152.809 76.2508 152.763 77.1705 152.534 78.053C152.306 78.9354 151.9 79.762 151.341 80.4825C150.427 81.396 149.595 81.6452 149.595 80.4825C149.826 78.5889 150.159 76.7092 150.593 74.8515Z" fill="white" stroke="#7367F0" stroke-linecap="round" stroke-linejoin="round"/>
<path d="M140.388 60.334C140.096 64.3759 138.366 68.1797 135.509 71.056C132.848 73.671 129.839 75.9067 126.567 77.7002C126.567 77.7002 127.049 80.2997 128.03 81.1136C129.011 81.9275 130.955 81.7697 130.955 81.7697C132.086 84.8589 133.924 87.6406 136.324 89.8922C140.221 93.4634 144.776 93.1395 147.377 87.7827C149.978 82.4258 151.283 77.0524 150.959 73.9629L150.635 70.8733C150.635 70.8733 142.174 66.1809 140.388 60.334Z" fill="white" stroke="#7367F0" stroke-linecap="round" stroke-linejoin="round"/>
<path d="M139.897 76.3963C140.311 76.3963 140.645 75.8014 140.645 75.0675C140.645 74.3336 140.311 73.7386 139.897 73.7386C139.484 73.7386 139.15 74.3336 139.15 75.0675C139.15 75.8014 139.484 76.3963 139.897 76.3963Z" fill="#7367F0"/>
<path d="M143.961 87.002C144.374 87.002 144.709 86.4071 144.709 85.6732C144.709 84.9393 144.374 84.3444 143.961 84.3444C143.548 84.3444 143.213 84.9393 143.213 85.6732C143.213 86.4071 143.548 87.002 143.961 87.002Z" fill="#7367F0"/>
<path d="M147.111 76.3963C147.524 76.3963 147.859 75.8014 147.859 75.0675C147.859 74.3336 147.524 73.7386 147.111 73.7386C146.698 73.7386 146.363 74.3336 146.363 75.0675C146.363 75.8014 146.698 76.3963 147.111 76.3963Z" fill="#7367F0"/>
<path d="M145.615 73.6555C145.33 74.6504 145.245 75.6922 145.366 76.7201C145.615 78.132 146.779 80.5322 145.781 80.9475C145.326 81.1549 144.823 81.2336 144.326 81.1751C143.83 81.1165 143.358 80.9229 142.964 80.6153" stroke="#7367F0" stroke-linecap="round" stroke-linejoin="round"/>
<path d="M137.737 72.6672C137.737 72.6672 138.136 70.1258 141.468 70.4165" stroke="#7367F0" stroke-linecap="round" stroke-linejoin="round"/>
<path d="M146.662 71.1972C146.662 71.1972 149.77 68.7056 150.776 73.2652" stroke="#7367F0" stroke-linecap="round" stroke-linejoin="round"/>
</svg>
